<?xml version="1.0" standalone="no"?>
<!DOCTYPE svg PUBLIC "-//W3C//DTD SVG 20010904//EN"
 "http://www.w3.org/TR/2001/REC-SVG-20010904/DTD/svg10.dtd">
<svg version="1.0" xmlns="http://www.w3.org/2000/svg"
 width="1000.000000pt" height="1000.000000pt" viewBox="0 0 1000.000000 1000.000000"
 preserveAspectRatio="xMidYMid meet">
<metadata>
Created by potrace 1.11, written by Peter Selinger 2001-2013
</metadata>
<g transform="translate(0.000000,1000.000000) scale(0.100000,-0.100000)"
fill="#000000" stroke="none">
<path d="M4719 9996 c-2 -2 -49 -6 -104 -10 -55 -3 -116 -8 -135 -11 -19 -2
-57 -7 -85 -10 -51 -6 -68 -9 -145 -20 -121 -18 -136 -20 -255 -45 -55 -12
-111 -24 -125 -26 -39 -8 -207 -53 -285 -76 -38 -12 -74 -22 -80 -24 -37 -8
-246 -83 -380 -137 -239 -96 -518 -235 -720 -360 -97 -60 -280 -182 -283 -189
-2 -5 -10 -8 -17 -8 -7 0 -15 -3 -17 -7 -1 -5 -39 -35 -83 -67 -230 -171 -525
-439 -714 -651 -30 -33 -66 -73 -81 -90 -279 -311 -593 -808 -785 -1240 -14
-33 -30 -69 -36 -80 -38 -82 -172 -460 -180 -510 -1 -5 -5 -20 -10 -33 -27
-72 -114 -446 -133 -577 -9 -60 -18 -120 -22 -140 -2 -11 -7 -49 -10 -83 -3
-35 -7 -73 -9 -83 -27 -138 -27 -850 0 -1039 2 -14 6 -52 10 -85 4 -32 9 -68
11 -80 2 -11 6 -39 9 -62 9 -74 16 -115 46 -263 169 -824 550 -1601 1106
-2251 125 -146 385 -406 532 -532 574 -491 1234 -840 1960 -1037 80 -22 157
-42 171 -44 14 -3 59 -13 100 -21 41 -9 84 -18 95 -19 11 -2 52 -9 90 -16 39
-6 85 -13 104 -16 19 -2 46 -6 60 -9 24 -3 73 -10 156 -20 220 -27 903 -27
1042 -1 10 2 47 7 83 11 36 4 72 9 81 10 9 2 39 6 67 10 47 6 281 48 327 59
280 65 560 149 720 216 11 5 56 23 100 40 220 88 539 251 735 375 374 237 615
430 922 737 397 399 698 823 952 1343 189 387 329 810 410 1240 13 72 27 153
31 180 3 28 8 57 10 65 2 8 7 44 10 80 4 36 8 81 11 100 26 224 25 941 -1
1023 -2 6 -6 41 -9 77 -7 75 -10 95 -36 250 -144 851 -497 1632 -1044 2310
-60 75 -77 94 -190 219 -89 100 -280 287 -381 375 -49 43 -103 91 -120 105
-50 44 -275 214 -360 272 -477 326 -984 560 -1533 709 -81 22 -158 42 -172 45
-14 2 -47 9 -75 15 -27 6 -61 13 -75 15 -50 11 -316 54 -360 59 -89 10 -166
19 -205 22 -52 6 -691 14 -696 10z"/>
</g>
</svg>
